<?xml version="1.0" encoding="UTF-8"?>
<svg id="Capa_2" data-name="Capa 2" xmlns="http://www.w3.org/2000/svg" xmlns:xlink="http://www.w3.org/1999/xlink" viewBox="0 0 273.49 82.99">
  <defs>
    <clipPath id="clippath">
      <rect width="51.64" height="44.07" style="fill: none;"/>
    </clipPath>
  </defs>
  <g id="Capa_1-2" data-name="Capa 1">
    <g>
      <path d="M99.17,82.77v-11.51h6.84v1.1h-5.65v4.1h5.48v1.12h-5.48v4.1h5.65v1.1h-6.84Z"/>
      <path d="M111.47,74.32c0-1.08.38-1.89,1.14-2.43.76-.54,1.64-.8,2.67-.8,2.24,0,3.57.83,3.99,2.5h-1.28c-.23-.99-1.13-1.49-2.71-1.49-1.11,0-1.89.33-2.33.99-.17.24-.25.55-.25.93,0,.7.38,1.25,1.15,1.64.36.19,1.13.44,2.3.74,1.17.3,2.02.64,2.55,1.02.74.52,1.1,1.25,1.11,2.19,0,1.16-.46,2.03-1.37,2.62-.77.5-1.72.75-2.84.75-2.55,0-4.03-.97-4.43-2.91h1.4c.22,1.22,1.23,1.83,3.03,1.83,1.29,0,2.19-.36,2.7-1.07.2-.28.3-.66.3-1.14s-.19-.87-.56-1.17c-.53-.43-1.54-.83-3.03-1.19-2.35-.54-3.52-1.55-3.52-3.02Z"/>
      <path d="M123.83,71.23h6.77v1.1h-2.79v10.41h-1.18v-10.41h-2.79v-1.1Z"/>
      <path d="M142.56,81.9c-.77.68-1.79,1.02-3.06,1.02s-2.31-.34-3.08-1.02c-.81-.72-1.22-1.7-1.22-2.94v-7.7h1.18v7.87c0,.86.31,1.53.94,2,.55.41,1.27.61,2.17.61,1.41,0,2.35-.47,2.84-1.42.17-.33.25-.72.25-1.18v-7.87h1.18v7.7c0,1.25-.41,2.23-1.22,2.94Z"/>
      <path d="M157.79,79.32c-.31.7-.73,1.31-1.26,1.82s-1.16.91-1.88,1.19c-.72.29-1.49.43-2.32.43h-3.01v-11.51h3.01c.82,0,1.6.14,2.32.43.72.29,1.35.69,1.88,1.19s.95,1.11,1.26,1.82c.31.71.47,1.48.47,2.31s-.16,1.6-.47,2.31ZM155.71,73.73c-.91-.86-2.02-1.29-3.35-1.29h-1.86v9.14h1.86c1.33,0,2.45-.43,3.35-1.29.93-.88,1.39-1.97,1.39-3.28s-.46-2.41-1.39-3.28Z"/>
      <path d="M163.53,82.77v-11.51h1.18v11.51h-1.18Z"/>
      <path d="M181.36,79.28c-.31.72-.73,1.35-1.27,1.89-.54.54-1.16.96-1.89,1.27-.72.31-1.49.47-2.3.47s-1.58-.16-2.29-.47c-.72-.31-1.34-.73-1.88-1.27s-.96-1.16-1.27-1.89c-.31-.72-.47-1.49-.47-2.3s.16-1.58.47-2.3c.31-.72.73-1.35,1.27-1.88.54-.53,1.16-.95,1.88-1.26.72-.31,1.48-.47,2.29-.47s1.58.16,2.3.47c.72.31,1.35.73,1.89,1.26.54.53.96,1.16,1.27,1.88.31.72.47,1.49.47,2.3s-.16,1.58-.47,2.3ZM179.25,73.65c-.93-.93-2.04-1.39-3.35-1.39s-2.41.46-3.33,1.39-1.39,2.04-1.39,3.33.46,2.43,1.39,3.35,2.04,1.39,3.33,1.39,2.43-.46,3.35-1.39,1.39-2.04,1.39-3.35-.46-2.41-1.39-3.33Z"/>
    </g>
    <polygon points="25.78 14.06 9.39 42.45 42.18 42.45 25.78 14.06" style="fill: none; stroke: #000; stroke-miterlimit: 10; stroke-width: 3.26px;"/>
    <path d="M162.21,36.74c.05-.07.08-.16.08-.27l.06-.61c.09-1.62.17-3.25.23-4.88.18-3.55.38-7.09.58-10.61.15-2.62.32-5.22.5-7.81.17-2.7.34-5.4.5-8.1.02-.31.04-.62.06-.91.11-1.83.5-2.94,1.17-3.36.67-.41,1.14-.17,1.41.72-.09,1.69-.19,3.39-.3,5.08-.09,1.23-.17,2.44-.24,3.65-.13,2.48-.27,4.96-.43,7.46-.41,6.63-.77,13.26-1.08,19.89-.4,8.08-.47,16.17-.23,24.27.04.8.08,1.61.11,2.42.02,2.14-.2,3.24-.67,3.3-.11.18-.24.26-.38.24-.53-.05-.87-1.51-1.04-4.39-.17-2.88-.27-5.68-.3-8.41-.19-4.93-.2-9.66-.03-14.18v-.27c.02-.15.02-.32,0-.5.02-.58-.25-.86-.81-.84h-.46c-1.21-.02-2.41-.01-3.62.03-4.58.29-9.13.83-13.66,1.61-.36.06-.65.11-.9.14-.35.06-.62.13-.81.2-.04.06-.07.15-.09.26-.05.27-.12,1.36-.21,3.26s-.21,4.31-.37,7.23c-.11,2.36-.22,4.74-.33,7.14,0,.26-.03.52-.09.76-.09.22-.23.37-.41.44-.15.2-.38.3-.67.3-.38-.03-.59-.22-.64-.58-.02-.65-.02-1.29,0-1.93l.33-11.05c.05-1.37.11-2.93.17-4.69-.02-.41-.23-.6-.62-.58-.07,0-.14.01-.21.03-.3.09-.62.17-.96.24-.94.22-1.87.45-2.78.67-.33.09-.63.22-.9.4-.11.11-.17.26-.17.44-.03.17.03.31.17.43.64.54,1.37.93,2.21,1.17l.76.24c.22.06.46.13.72.2.11.04.17.13.18.28.01.15-.04.27-.15.36-.09.06-.17.13-.24.2-.02,0-.04.01-.06.03-.36.31-.77.46-1.23.44-1.48-.13-2.79-.64-3.93-1.54-.8-.67-.87-1.41-.2-2.22.24-.28.52-.54.84-.76.29-.24.62-.46.97-.64,1.05-.52,2.14-.91,3.27-1.17.33-.09.66-.17.97-.23.31-.07.63-.15.94-.24.15-.04.28-.09.4-.14.07-.13.12-.38.14-.73.02-.2.03-.41.03-.61v-.36l.2-6.22.47-14.33c.07-1.75.09-3.5.05-5.25-.04-1.74-.23-3.47-.59-5.19-.09-.41.02-.76.33-1.07.09-.09.19-.17.3-.24.24-.24.5-.35.78-.31.28.04.49.2.65.48.2.47.36.96.47,1.48.24,1.27.38,2.55.41,3.85-.03.98-.05,1.95-.05,2.91,0,2.08-.02,4.16-.06,6.24-.11,2.85-.23,5.72-.36,8.6-.11,2.5-.21,5-.3,7.5l-.06.67c-.05.33-.02.78.11,1.32s.76.71,1.9.49l.73-.14c2.41-.35,5.38-.72,8.91-1.1,3.52-.38,6.34-.57,8.44-.57.02,0,.05-.01.09-.03Z"/>
    <path d="M194.63,35.65c.18-.24.38-.42.58-.53.2-.11.32-.11.36,0,.04.11-.07.38-.33.81-.6.89-1.48,1.74-2.64,2.54-1.16.8-2.45,1.49-3.85,2.05-1.41.57-2.78.94-4.12,1.13-1.34.18-2.47.09-3.4-.27-.93-.36-1.5-1.06-1.73-2.11-.78,1.27-1.71,2.26-2.78,2.97-1.07.71-2.09,1.02-3.05.91-1.1-.15-1.83-.56-2.19-1.23-.36-.67-.49-1.44-.36-2.31.12-.87.39-1.7.79-2.48.3-.6.74-1.16,1.29-1.67.56-.52,1.14-.92,1.75-1.2.76-.39,1.52-.56,2.29-.53.77.04,1.58.29,2.46.75l.03-.06c0-.09.02-.2.05-.32s.11-.23.22-.32c.15-.11.35-.2.59-.27.24-.07.47-.08.69-.04.35.07.58.25.66.54.09.29.1.61.05.95s-.11.64-.18.88c-.02.05-.03.1-.03.14-.37,1.47-.23,2.5.4,3.1.63.59,1.54.87,2.73.82,1.19-.05,2.46-.3,3.8-.75,1.34-.46,2.56-1,3.65-1.64,1.1-.63,1.85-1.26,2.27-1.86ZM174.12,41.18c.47.31.97.28,1.51-.1.54-.38,1.06-.93,1.58-1.64.51-.71.94-1.43,1.27-2.14.33-.71.52-1.25.56-1.61-1.06-.58-1.98-.68-2.74-.31-.76.37-1.35.96-1.78,1.77-.43.81-.67,1.62-.74,2.41-.07.8.05,1.34.34,1.62Z"/>
    <path d="M203.7,2.26c1.73-.72,3.28-.59,4.65.4,1.36.98,2.39,2.57,3.08,4.77s.9,4.77.62,7.71c-.28,2.95-1.2,6.02-2.76,9.21-1.56,3.19-3.92,6.28-7.06,9.27-.22.2-.34.38-.35.54-.01.16,0,.32.05.49.02.11.04.23.06.36.29-.42.69-.86,1.19-1.35s1.08-.89,1.73-1.21,1.35-.44,2.09-.33c.75.1,1.52.52,2.32,1.26.61.62.98,1.43,1.13,2.43.14,1,.05,2.03-.27,3.07-.32,1.04-.89,1.92-1.69,2.63s-1.85,1.08-3.15,1.1c-.82-.02-1.49-.17-2.02-.45-.52-.28-.92-.61-1.19-1-.27-.39-.44-.73-.51-1.03.05.2.08.48.09.82s-.04.66-.15.94-.32.43-.64.45c-.78,0-1.18-.4-1.2-1.2-.02-.8-.05-1.59-.08-2.37-.02-.96-.04-1.91-.06-2.85-.02-.27-.03-.58-.03-.91-.07-1.42-.14-3.36-.21-5.84s-.08-5.14-.03-8.02c.05-2.88.21-5.67.49-8.37.28-2.7.73-5.01,1.35-6.92.62-1.91,1.47-3.11,2.55-3.62ZM201.86,32.34c2.2-2.54,4.09-5.37,5.67-8.51,1.58-3.14,2.51-6.31,2.79-9.52.05-.74,0-1.72-.14-2.95-.15-1.23-.41-2.47-.78-3.74-.37-1.26-.87-2.33-1.49-3.2s-1.38-1.34-2.27-1.41c-.73.02-1.33.62-1.8,1.81-.47,1.19-.83,2.74-1.09,4.67-.25,1.93-.44,4.02-.57,6.28-.13,2.26-.2,4.48-.22,6.66-.02,2.19-.03,4.14-.03,5.85,0,1.95-.02,3.3-.06,4.05ZM202.95,35.96c-.11.15-.2.3-.26.44-.27.4-.43.73-.48,1.01-.05.28.07.71.34,1.29.28.67.68,1.2,1.18,1.59.5.39,1.05.53,1.64.4.59-.12,1.18-.6,1.76-1.45.35-.56.57-1.21.65-1.96.08-.75-.02-1.45-.31-2.09-.29-.64-.8-1.08-1.54-1.3-.33-.11-.69-.11-1.06.02-.37.12-.72.38-1.06.78-.3.39-.59.81-.87,1.28Z"/>
    <path d="M218.34,42.62c-1.99-.2-1.84-9.11-.35-10.1,1.41-.94,1.53,2.2,1.51,3.05-.15,1.56.36,6.26-1.12,7.04h-.04ZM218.93,31.02c-.59.45-1.21-.09-1.07-.9.06-.81.87-1.55,1.56-1.06.6.51.06,1.53-.43,1.92l-.07.05Z"/>
    <path d="M233.43,26.78c.13.02.22.11.27.28.05.17.05.34,0,.53-.05.18-.13.27-.27.27l-4.91-.05v.14c-.02.72-.07,1.58-.14,2.59-.11,2.12-.17,4.27-.17,6.45,0,.74.05,1.76.15,3.07.1,1.3.31,2.47.62,3.49.02.07.09.2.2.38.13.22.26.47.38.75.12.28.18.51.17.68-.01.18-.15.23-.41.16-.87-.28-1.54-.98-1.99-2.08s-.78-2.4-.97-3.87c-.19-1.48-.29-2.92-.3-4.32-.01-1.41,0-2.54.05-3.42.03-.6.06-1.2.08-1.8.02-.76.04-1.51.06-2.25l-3.71-.06c-.31,0-.49-.06-.54-.18-.05-.12-.01-.25.1-.37.11-.13.26-.2.44-.22l3.74-.06.24-3.59c.04-.58.09-1.17.14-1.77,0-.31.01-.63.03-.94,0-.47.11-.9.33-1.31.26-.35.59-.49.97-.4.33.11.52.34.56.7.04.58.06,1.16.06,1.75v2.13l-.09,3.39,4.91-.08Z"/>
    <path d="M259.03,35.65c.18-.24.38-.42.58-.53.2-.11.32-.11.36,0,.04.11-.07.38-.33.81-.6.89-1.48,1.74-2.64,2.54-1.16.8-2.45,1.49-3.85,2.05-1.41.57-2.78.94-4.12,1.13-1.34.18-2.47.09-3.4-.27-.93-.36-1.5-1.06-1.73-2.11-.78,1.27-1.71,2.26-2.78,2.97-1.07.71-2.09,1.02-3.05.91-1.1-.15-1.83-.56-2.19-1.23-.36-.67-.49-1.44-.36-2.31.12-.87.39-1.7.79-2.48.3-.6.74-1.16,1.29-1.67.56-.52,1.14-.92,1.75-1.2.76-.39,1.52-.56,2.29-.53.77.04,1.58.29,2.46.75l.03-.06c0-.09.02-.2.05-.32s.11-.23.22-.32c.15-.11.35-.2.59-.27.24-.07.47-.08.69-.04.35.07.58.25.66.54.09.29.1.61.05.95s-.11.64-.18.88c-.02.05-.03.1-.03.14-.37,1.47-.23,2.5.4,3.1.63.59,1.54.87,2.73.82,1.19-.05,2.46-.3,3.8-.75,1.34-.46,2.56-1,3.65-1.64,1.1-.63,1.85-1.26,2.27-1.86ZM238.52,41.18c.47.31.97.28,1.51-.1.54-.38,1.06-.93,1.58-1.64.51-.71.94-1.43,1.27-2.14.33-.71.52-1.25.56-1.61-1.06-.58-1.98-.68-2.74-.31-.76.37-1.35.96-1.78,1.77-.43.81-.67,1.62-.74,2.41-.07.8.05,1.34.34,1.62Z"/>
    <path d="M273.02,37.16c.19-.4.32-.58.4-.55.07.03.09.19.05.48s-.1.62-.19.98c-.13.56-.36,1.2-.68,1.94-.32.74-.68,1.4-1.08,2-.59.83-1.32,1.46-2.18,1.88-.87.42-1.65.52-2.36.31-.71-.21-1.11-.88-1.22-1.99-.02-.93.06-1.96.24-3.07.06-.47.13-.92.2-1.37,0-.16-.04-.29-.12-.37-.08-.09-.19-.12-.32-.1h-.3c-.56.09-1.13.08-1.7-.03-.69-.2-1.09-.55-1.2-1.03-.11-.48-.1-1.11.03-1.89.07-.56.28-.98.62-1.26s.75-.39,1.22-.34c.65.06.96.31.94.75-.02.44-.14.9-.37,1.4-.2.42-.31.76-.32,1.04-.01.28.23.38.71.3.11-.03.23-.07.37-.11.18-.07.39-.13.62-.19.23-.06.54-.07.91-.04.45.02.74.23.89.62.15.39.21.88.19,1.47-.02.59-.08,1.19-.17,1.8-.11.76-.17,1.41-.17,1.96s.16.86.47.95c.42.11,1.04-.27,1.86-1.13.83-.87,1.71-2.33,2.66-4.39Z"/>
    <path d="M66.19,30.86c-.65,0-1.21.18-1.68.55s-.85.82-1.16,1.36c-.6,1.03-.89,2.19-.89,3.49v7.87h-2.5v-15.73h2.5v3.25l.11-.64c.84-1.95,2.14-2.93,3.9-2.93.55,0,1.07.11,1.57.32v3.25c-.58-.52-1.19-.79-1.85-.79Z"/>
    <path d="M80.8,28.39h3.93v-6.12h2.5v6.12h3.9v2.32h-3.9v13.41h-2.5v-13.41h-3.93v-2.32Z"/>
    <path d="M121.6,37.22h-13.84c.24,1.35.9,2.46,1.97,3.33,1.09.88,2.31,1.32,3.65,1.32.91,0,1.77-.21,2.59-.63s1.51-1,2.06-1.73h2.86c-.67,1.5-1.67,2.69-3.02,3.56-1.35.87-2.72,1.31-4.11,1.31s-2.59-.21-3.58-.64-1.86-1.01-2.61-1.75c-1.61-1.58-2.41-3.51-2.41-5.79s.8-4.2,2.41-5.81,3.55-2.41,5.81-2.41,4.11.77,5.74,2.32c1.66,1.58,2.49,3.45,2.49,5.61v1.32ZM116.93,31.75c-1.04-.86-2.22-1.29-3.56-1.29-2.04,0-3.65.92-4.83,2.77-.36.56-.61,1.17-.75,1.84h11.16c-.29-1.34-.96-2.45-2.02-3.33Z"/>
    <g style="clip-path: url(#clippath);">
      <polygon points="25.89 3.49 1.04 46.52 50.73 46.52 25.89 3.49" style="fill: none; stroke: #000; stroke-miterlimit: 10; stroke-width: 3.26px;"/>
      <rect x="-1.78" y=".75" width="54.41" height="43.9" style="fill: none;"/>
      <rect width="51.64" height="44.65" style="fill: none;"/>
    </g>
  </g>
</svg>